<?xml version="1.0" encoding="utf-8"?>
<!-- Generator: Adobe Illustrator 26.3.1, SVG Export Plug-In . SVG Version: 6.00 Build 0)  -->
<svg version="1.1" id="asakacloud.vn" xmlns="http://www.w3.org/2000/svg" xmlns:xlink="http://www.w3.org/1999/xlink" x="0px"
	 y="0px" viewBox="0 0 1024 1024" style="enable-background:new 0 0 1024 1024;" xml:space="preserve">
<style type="text/css">
	.st0{fill:url(#zyndata.vn_00000061465387542134238260000018153050098074298016_);}
	.st1{fill:#534CF1;stroke:#FFFFFF;stroke-miterlimit:10;}
	
		.st2{fill:url(#zyndata.vn_00000101085261597190509260000010160944927681854597_);stroke:url(#zyndata.vn_00000013154319715260307590000002181507688934469544_);stroke-miterlimit:10;}
	.st3{fill:#E4EEFD;}
	.st4{fill:#FFFFFF;stroke:#FFFFFF;stroke-miterlimit:10;}
	.st5{fill:#4B43D3;}
	.st6{fill:#E4EEFD;enable-background:new    ;}
	.st7{fill:#FCFCFC;enable-background:new    ;}
	.st8{fill:url(#zyndata.vn_00000154413330111454335930000010590300614466923392_);}
	.st9{fill:url(#zyndata.vn_00000038383333729491938910000012639973856409542841_);}
	.st10{fill:#7DCAFF;}
	.st11{fill:#B6DEFF;}
	.st12{fill:url(#zyndata.vn_00000067945076967643247930000017194539891908209808_);}
	.st13{fill:url(#zyndata.vn_00000062885704646472526770000017077318927398608268_);}
	.st14{fill:#EA92FC;}
	.st15{fill:#EFA1FF;}
	.st16{fill:url(#zyndata.vn_00000069388774538833105430000000616177469497134758_);}
	.st17{fill:url(#zyndata.vn_00000013881342393036392940000010849950890452353674_);}
	.st18{fill:#838CFF;}
	.st19{fill:#9194FF;}
	.st20{fill:#4256FA;enable-background:new    ;}
	.st21{fill:#D2D3FF;enable-background:new    ;}
	.st22{fill:#F6F4FF;}
	.st23{fill:url(#zyndata.vn_00000028318184389851156400000016326395435219680923_);}
	.st24{fill:url(#zyndata.vn_00000010272908099779933950000014196206001029420459_);}
	.st25{fill:url(#zyndata.vn_00000173140176883515699900000016227283521980985249_);}
	.st26{fill:url(#zyndata.vn_00000072995159276868681820000010864775814687211951_);}
	.st27{fill:url(#zyndata.vn_00000067206442896267710030000010109842145311846306_);}
	.st28{fill:url(#zyndata.vn_00000174578032768751195190000002335227896177365149_);}
	.st29{fill:url(#zyndata.vn_00000111902605328449162040000016843201564398050216_);}
	.st30{fill:url(#zyndata.vn_00000112597727881567686330000015071903098272007307_);}
	.st31{fill:url(#zyndata.vn_00000155856157504837935400000011495216030301440921_);}
	.st32{fill:url(#zyndata.vn_00000047768874527032764370000000420741143169430183_);}
</style>
<g id="Border">
	
		<linearGradient id="zyndata.vn_00000103237191760426904650000000694418231043076233_" gradientUnits="userSpaceOnUse" x1="55" y1="511.5171" x2="962.5056" y2="511.5171">
		<stop  offset="0" style="stop-color:#608EFF"/>
		<stop  offset="1" style="stop-color:#7362FF"/>
	</linearGradient>
	
		<path id="zyndata.vn_00000101802984368429525140000017262946156617356452_" style="fill:url(#zyndata.vn_00000103237191760426904650000000694418231043076233_);" d="
		M449.8,22.6L110.6,218C76.2,237.8,55,274.4,55,314.1v396.5c0,39.9,21.4,76.6,56,96.4l340.1,193.7c16,9.1,34,14.1,52.4,14.5l0,0
		c20.1,0.5,39.9-4.5,57.3-14.4l341.8-194.2c34.4-19.5,55.7-55.8,56.1-95.4l3.8-392.2c0.4-39.9-20.7-77-55.3-97L563.8,22.8
		c-16.9-9.8-36.1-15-55.6-15h-2.9C485.8,7.8,466.7,12.9,449.8,22.6z"/>
</g>
<g id="Top">
	<path id="zyndata.vn_00000076588927333894131730000010825789604072821694_" class="st1" d="M469.8,69.9L208.1,227.4
		c-27.9,16.3-34.7,45.4-6.4,61l274.3,152.9c28.3,15.6,59.7,9.5,82.2-4.9l273.6-161.3c19.8-12.2,14.8-40.6-0.6-49.1L557.6,71.6
		C530,56.2,497,53.9,469.8,69.9z"/>
	
		<linearGradient id="zyndata.vn_00000136412893803395526190000004644566581038424511_" gradientUnits="userSpaceOnUse" x1="167.9617" y1="256.1816" x2="859.3757" y2="256.1816">
		<stop  offset="0" style="stop-color:#8E9FFE"/>
		<stop  offset="1" style="stop-color:#A899FF"/>
	</linearGradient>
	
		<linearGradient id="zyndata.vn_00000005977443389730715570000016936956879567653253_" gradientUnits="userSpaceOnUse" x1="167.4617" y1="256.1816" x2="859.8757" y2="256.1816">
		<stop  offset="0" style="stop-color:#8E9FFE"/>
		<stop  offset="1" style="stop-color:#9D84FF"/>
	</linearGradient>
	
		<path id="zyndata.vn" style="fill:url(#zyndata.vn_00000136412893803395526190000004644566581038424511_);stroke:url(#zyndata.vn_00000005977443389730715570000016936956879567653253_);stroke-miterlimit:10;" d="
		M851.5,237.4L538.8,58.1c-16.6-9.5-37-9.3-53.4,0.5L178.2,241.7c-13.8,8.2-13.6,28.2,0.3,36.3l306.1,176.2
		c16.7,9.6,37.2,9.4,53.7-0.6l313.5-189.2C862,258.3,861.9,243.4,851.5,237.4z M770.6,275.2L550.1,408.6
		c-22.3,13.8-50.3,14.4-73.1,1.4L237.7,273.9c-10.8-6.2-11-21.7-0.3-28.1l238.8-142.5c22.1-13.2,49.6-13.5,72-0.7l221.4,126.3
		C786,238.2,786.6,265.3,770.6,275.2z"/>
	<path id="zyndata.vn_00000028305575631709342070000000836359833578731448_" class="st3" d="M488.3,151.8L319.9,253.7
		c-17.7,10.7-22.1,29.9-4.1,40.2L490,394.6c18,10.3,37.9,6.3,52.2-3.2L716,285.1c12.6-8,9.4-26.7-0.4-32.4l-167.7-98.2
		C530.4,144.4,505.6,141.2,488.3,151.8z"/>
	<path id="zyndata.vn_00000086686737151493259770000012936070443563752337_" class="st4" d="M487.5,136.7L319.1,238.6
		c-17.7,10.7-22.1,29.9-4.1,40.2l174.2,100.8c18,10.3,37.9,6.3,52.2-3.2L715.1,270c12.6-8,9.4-26.7-0.4-32.4L547,139.5
		C529.6,129.2,504.8,126.2,487.5,136.7z"/>
</g>
<g id="Phải">
	<g id="Background_00000083083134244180102080000014550801491313720212_">
		<path id="zyndata.vn_00000170239614389429710980000005668294672320435597_" class="st5" d="M883,299.7L547.2,496.6
			c-19.4,11.4-24.6,23.3-24.6,45.8l-0.1,414.8c0,14.4,15.6,23.4,28.1,16.2l333.6-192.9c15.6-9,25.3-25.7,25.3-43.8V314.9
			C909.5,301.3,894.7,292.8,883,299.7z"/>
	</g>
	<g id="Server_3">
		<path id="zyndata.vn_00000087414452406127888900000002105682003566960282_" class="st6" d="M857.9,639.3l-270.1,157
			c-12,7-19,19.2-19,33.1l-0.4,50.1c0,18,22.2,30,37.8,21L859,753.7c13.6-7.9,19.5-18.2,19.5-33.9l0.9-72.2
			C878.8,640.2,867.9,634,857.9,639.3z"/>
		<path id="zyndata.vn_00000031906809816688923150000001461992292855530677_" class="st7" d="M866.3,645.9l-270.1,157
			c-12,7-19,19.2-19,33.1l-0.4,50.1c0,18,22.2,30,37.8,21l252.8-146.8c13.6-7.9,19.5-18.2,19.5-33.9l0.9-72.2
			C887.2,646.8,876.3,640.6,866.3,645.9z"/>
		
			<linearGradient id="zyndata.vn_00000106134783733425863800000002755957684599990918_" gradientUnits="userSpaceOnUse" x1="604.1355" y1="801.5359" x2="810.6917" y2="801.5359">
			<stop  offset="5.586592e-03" style="stop-color:#64CBFF"/>
			<stop  offset="1" style="stop-color:#90CEFC"/>
		</linearGradient>
		
			<path id="zyndata.vn_00000045621170127940798970000003855815515952497059_" style="fill:url(#zyndata.vn_00000106134783733425863800000002755957684599990918_);" d="
			M790.2,731.7L615.9,832.3c-7.3,4.2-11.7,11.9-11.7,20.3v7.8c0,9.8,10.6,15.9,19.1,11L799.9,769c6.7-3.9,10.8-11.1,10.8-18.8v-6.7
			C810.7,733,799.3,726.5,790.2,731.7z"/>
		
			<linearGradient id="zyndata.vn_00000031927078543107617240000012574336467734905021_" gradientUnits="userSpaceOnUse" x1="606.9136" y1="802.9961" x2="813.4698" y2="802.9961">
			<stop  offset="5.586592e-03" style="stop-color:#B5DEFF"/>
			<stop  offset="1" style="stop-color:#B5DDFF"/>
		</linearGradient>
		
			<path id="zyndata.vn_00000169517407221929183120000004906821083546745231_" style="fill:url(#zyndata.vn_00000031927078543107617240000012574336467734905021_);" d="
			M793,733.2L618.6,833.8c-7.3,4.2-11.7,11.9-11.7,20.3v7.8c0,9.8,10.6,15.9,19.1,11l176.6-102.5c6.7-3.9,10.8-11.1,10.8-18.8V745
			C813.5,734.5,802.1,727.9,793,733.2z"/>
		
			<ellipse id="zyndata.vn_00000011749064141740305350000001516913296288897437_" transform="matrix(0.5 -0.866 0.866 0.5 -200.45 1097.799)" class="st10" cx="850.5" cy="722.5" rx="23.7" ry="15.2"/>
		
			<ellipse id="zyndata.vn_00000026127376951421515640000009189041214196424106_" transform="matrix(0.5 -0.866 0.866 0.5 -199.001 1100.3086)" class="st11" cx="853.4" cy="722.5" rx="23.7" ry="15.2"/>
	</g>
	<g id="Server_2">
		<path id="zyndata.vn_00000017515472488562177030000001379013681509359760_" class="st6" d="M857.7,499.6l-270.1,157
			c-12,7-19,19.2-19,33.1l-0.4,50.1c0,18,22.2,30,37.8,21L858.8,614c13.6-7.9,19.5-18.2,19.5-33.9l0.9-72.2
			C878.5,500.5,867.7,494.3,857.7,499.6z"/>
		<path id="zyndata.vn_00000071552470312733375010000017443611226852265088_" class="st7" d="M866.1,506.2L596,663.2
			c-12,7-19,19.2-19,33.1l-0.4,50.1c0,18,22.2,30,37.8,21l252.8-146.8c13.6-7.9,19.5-18.2,19.5-33.9l0.9-72.2
			C887,507.1,876.1,500.9,866.1,506.2z"/>
		
			<linearGradient id="zyndata.vn_00000118363117074845677310000010192096831497732498_" gradientUnits="userSpaceOnUse" x1="603.9014" y1="661.84" x2="810.4576" y2="661.84">
			<stop  offset="5.586592e-03" style="stop-color:#F657FF"/>
			<stop  offset="1" style="stop-color:#EA88FF"/>
		</linearGradient>
		
			<path id="zyndata.vn_00000141420821175857446970000016063053648155298741_" style="fill:url(#zyndata.vn_00000118363117074845677310000010192096831497732498_);" d="
			M790,592L615.6,692.6c-7.3,4.2-11.7,11.9-11.7,20.3v7.8c0,9.8,10.6,15.9,19.1,11l176.6-102.5c6.7-3.9,10.8-11.1,10.8-18.8v-6.7
			C810.5,593.3,799.1,586.8,790,592z"/>
		
			<linearGradient id="zyndata.vn_00000126294897314291633620000017514679915661313980_" gradientUnits="userSpaceOnUse" x1="606.6795" y1="662.9614" x2="813.2357" y2="662.9614">
			<stop  offset="5.586592e-03" style="stop-color:#FC9FFF"/>
			<stop  offset="1" style="stop-color:#F9D6FF"/>
		</linearGradient>
		
			<path id="zyndata.vn_00000031205007955960789370000000242885422445935526_" style="fill:url(#zyndata.vn_00000126294897314291633620000017514679915661313980_);" d="
			M792.8,593.1L618.4,693.8c-7.3,4.2-11.7,11.9-11.7,20.3v7.8c0,9.8,10.6,15.9,19.1,11l176.6-102.5c6.7-3.9,10.8-11.1,10.8-18.8V605
			C813.2,594.5,801.9,587.9,792.8,593.1z"/>
		
			<ellipse id="zyndata.vn_00000005241587600489589250000017842289085623840423_" transform="matrix(0.5 -0.866 0.866 0.5 -79.5869 1027.7482)" class="st14" cx="850.3" cy="582.8" rx="23.7" ry="15.2"/>
		
			<ellipse id="zyndata.vn_00000180329719593721646390000007641864501890192281_" transform="matrix(0.5 -0.866 0.866 0.5 -78.1379 1030.2578)" class="st15" cx="853.2" cy="582.8" rx="23.7" ry="15.2"/>
	</g>
	<g id="Server_1">
		<path id="zyndata.vn_00000063607490214928328630000010747310539654809261_" class="st6" d="M857.9,356.6l-270.1,157
			c-12,7-19,19.2-19,33.1l-0.4,50.1c0,18,22.2,30,37.8,21L859,471c13.6-7.9,19.5-18.2,19.5-33.9l0.9-72.2
			C878.8,357.5,867.9,351.3,857.9,356.6z"/>
		<path id="zyndata.vn_00000158021945230383768190000004961572317342401966_" class="st7" d="M866.3,363.2l-270.1,157
			c-12,7-19,19.2-19,33.1l-0.4,50.1c0,18,22.2,30,37.8,21l252.8-146.8c13.6-7.9,19.5-18.2,19.5-33.9l0.9-72.2
			C887.2,364.1,876.3,357.9,866.3,363.2z"/>
		
			<linearGradient id="zyndata.vn_00000036217739699356241040000002958329612901147522_" gradientUnits="userSpaceOnUse" x1="604.1355" y1="520.186" x2="810.6917" y2="520.186">
			<stop  offset="5.586592e-03" style="stop-color:#6680FF"/>
			<stop  offset="1" style="stop-color:#9D84FF"/>
		</linearGradient>
		
			<path id="zyndata.vn_00000082344963715415190780000009016827818870463117_" style="fill:url(#zyndata.vn_00000036217739699356241040000002958329612901147522_);" d="
			M790.2,452.3L615.9,553c-7.3,4.2-11.7,8.6-11.7,17v7.8c0,9.8,10.6,15.9,19.1,11l176.6-102.5c6.7-3.9,10.8-11.1,10.8-18.8v-6.7
			C810.7,450.3,799.3,447.1,790.2,452.3z"/>
		
			<linearGradient id="zyndata.vn_00000122691430142151932590000012490491145573822599_" gradientUnits="userSpaceOnUse" x1="606.9136" y1="523.5525" x2="813.4698" y2="523.5525">
			<stop  offset="5.586592e-03" style="stop-color:#7D8DFF"/>
			<stop  offset="1" style="stop-color:#AEB1FF"/>
		</linearGradient>
		
			<path id="zyndata.vn_00000010270410838812624500000010364389157726856341_" style="fill:url(#zyndata.vn_00000122691430142151932590000012490491145573822599_);" d="
			M793,453.7L618.6,554.4c-7.3,4.2-11.7,11.9-11.7,20.3v7.8c0,9.8,10.6,15.9,19.1,11L802.6,491c6.7-3.9,10.8-11.1,10.8-18.8v-6.7
			C813.5,455.1,802.1,448.5,793,453.7z"/>
		
			<ellipse id="zyndata.vn_00000178174721242092589220000001901847540387522951_" transform="matrix(0.5 -0.866 0.866 0.5 41.1213 958.3277)" class="st18" cx="850.5" cy="443.6" rx="23.7" ry="15.2"/>
		
			<ellipse id="zyndata.vn_00000070097215219591019710000002037826053022023865_" transform="matrix(0.5 -0.866 0.866 0.5 42.6104 960.9069)" class="st19" cx="853.5" cy="443.6" rx="23.7" ry="15.2"/>
	</g>
</g>
<g id="Trái">
	<g id="Background">
		<path id="zyndata.vn_00000112622068465183157090000012565075230916790694_" class="st20" d="M448,497.9L121.8,309.5
			c-10.9-6.3-24.6,1.6-24.6,14.2l0.1,410.7c0,19.6,10.4,37.7,27.4,47.5l268.4,155.4c36.6,21.2,82.4-5.2,82.4-47.5V545.4
			C475.4,525.8,465,507.7,448,497.9z"/>
		<path id="zyndata.vn_00000032643369371077491960000005351509601707713970_" class="st21" d="M450.3,498.7L153.9,328.1
			c-9.8-5.8-22.9,1.9-22.9,13.6v375.2c0,18.1,13.2,36.8,28.5,45.8L426.2,916c0.8,0.4,1.6,0.8,2.4,1.1c21.3,8.1,45.6,11.8,47-26.6
			l0-345.1C475.4,527.3,466.2,509.6,450.3,498.7z"/>
		<path id="zyndata.vn_00000011003515795520088820000003909997501817638790_" class="st22" d="M193.9,351.1l252.6,145.5
			c18,9.4,28.9,27.2,28.9,51.2v313.8c0,11.6-12.5,18.8-22.6,13L196.3,726.4c-13.5-7.8-21.8-22.2-21.8-37.8V362.3
			C174.5,352.4,185.3,346.1,193.9,351.1z"/>
	</g>
	<g id="Front">
		
			<linearGradient id="zyndata.vn_00000015318218862509450340000007260250165555052984_" gradientUnits="userSpaceOnUse" x1="170.0158" y1="483.5365" x2="250.825" y2="483.5365">
			<stop  offset="0" style="stop-color:#608EFF"/>
			<stop  offset="1" style="stop-color:#6762FF"/>
		</linearGradient>
		
			<path id="zyndata.vn_00000046342035550092293230000013967517772899667125_" style="fill:url(#zyndata.vn_00000015318218862509450340000007260250165555052984_);" d="
			M247.6,490.9l-71.5-40c-2.5-1.4-5.5,0.3-5.6,3.2l-0.5,15.9c-0.1,2.3,1.1,4.4,3,5.5l68.4,40.3c4.1,2.4,9.4-0.5,9.4-5.3v-14.2
			C250.8,494,249.6,492,247.6,490.9z"/>
		
			<linearGradient id="zyndata.vn_00000116195349711251877060000017817437155624853382_" gradientUnits="userSpaceOnUse" x1="169.3333" y1="539.4493" x2="250.1425" y2="539.4493">
			<stop  offset="0" style="stop-color:#608EFF"/>
			<stop  offset="1" style="stop-color:#6762FF"/>
		</linearGradient>
		
			<path id="zyndata.vn_00000168815386397588753320000000152810911651104168_" style="fill:url(#zyndata.vn_00000116195349711251877060000017817437155624853382_);" d="
			M247,546.8l-71.5-40c-2.5-1.4-5.5,0.3-5.6,3.2l-0.5,15.9c-0.1,2.3,1.1,4.4,3,5.5l68.4,40.3c4.1,2.4,9.4-0.5,9.4-5.3v-14.2
			C250.1,550,248.9,547.9,247,546.8z"/>
		
			<linearGradient id="zyndata.vn_00000123422876839125788910000006134976664831963055_" gradientUnits="userSpaceOnUse" x1="169.3333" y1="595.7855" x2="250.1425" y2="595.7855">
			<stop  offset="0" style="stop-color:#608EFF"/>
			<stop  offset="1" style="stop-color:#6762FF"/>
		</linearGradient>
		
			<path id="zyndata.vn_00000065789580161090123880000016493656118953960335_" style="fill:url(#zyndata.vn_00000123422876839125788910000006134976664831963055_);" d="
			M247,603.1l-71.5-40c-2.5-1.4-5.5,0.3-5.6,3.2l-0.5,15.9c-0.1,2.3,1.1,4.4,3,5.5l68.4,40.3c4.1,2.4,9.4-0.5,9.4-5.3v-14.2
			C250.1,606.3,248.9,604.2,247,603.1z"/>
		
			<linearGradient id="zyndata.vn_00000069364444412306290350000003680485601319687582_" gradientUnits="userSpaceOnUse" x1="170.4006" y1="651.7961" x2="251.2097" y2="651.7961">
			<stop  offset="0" style="stop-color:#608EFF"/>
			<stop  offset="1" style="stop-color:#6762FF"/>
		</linearGradient>
		
			<path id="zyndata.vn_00000010277284098907949720000009133953957285998983_" style="fill:url(#zyndata.vn_00000069364444412306290350000003680485601319687582_);" d="
			M248,659.1l-71.5-40c-2.5-1.4-5.5,0.3-5.6,3.2l-0.5,15.9c-0.1,2.3,1.1,4.4,3,5.5l68.4,40.3c4.1,2.4,9.4-0.5,9.4-5.3v-14.2
			C251.2,662.3,250,660.2,248,659.1z"/>
		
			<linearGradient id="zyndata.vn_00000078023782597627444500000004338947197066253211_" gradientUnits="userSpaceOnUse" x1="169.3333" y1="706.5042" x2="250.1425" y2="706.5042">
			<stop  offset="0" style="stop-color:#608EFF"/>
			<stop  offset="1" style="stop-color:#6762FF"/>
		</linearGradient>
		
			<path id="zyndata.vn_00000057854867943761987920000014310747678992567743_" style="fill:url(#zyndata.vn_00000078023782597627444500000004338947197066253211_);" d="
			M247,713.8l-71.5-40c-2.5-1.4-5.5,0.3-5.6,3.2l-0.5,15.9c-0.1,2.3,1.1,4.4,3,5.5l68.4,40.3c4.1,2.4,9.4-0.5,9.4-5.3v-14.2
			C250.1,717,248.9,714.9,247,713.8z"/>
		
			<linearGradient id="zyndata.vn_00000134231674325220064390000015040954383748025748_" gradientUnits="userSpaceOnUse" x1="321.9874" y1="793.7765" x2="402.7965" y2="793.7765">
			<stop  offset="0" style="stop-color:#608EFF"/>
			<stop  offset="1" style="stop-color:#6762FF"/>
		</linearGradient>
		
			<path id="zyndata.vn_00000036236227800393515560000011358191607408413102_" style="fill:url(#zyndata.vn_00000134231674325220064390000015040954383748025748_);" d="
			M399.6,801.1l-71.5-40c-2.5-1.4-5.5,0.3-5.6,3.2l-0.5,15.9c-0.1,2.3,1.1,4.4,3,5.5l68.4,40.3c4.1,2.4,9.4-0.5,9.4-5.3v-14.2
			C402.8,804.3,401.6,802.2,399.6,801.1z"/>
		
			<linearGradient id="zyndata.vn_00000067211409875111045170000002122357016559865986_" gradientUnits="userSpaceOnUse" x1="321.9874" y1="739.6287" x2="402.7965" y2="739.6287">
			<stop  offset="0" style="stop-color:#608EFF"/>
			<stop  offset="1" style="stop-color:#6762FF"/>
		</linearGradient>
		
			<path id="zyndata.vn_00000030485784835001826800000014899395652950130622_" style="fill:url(#zyndata.vn_00000067211409875111045170000002122357016559865986_);" d="
			M399.6,747l-71.5-40c-2.5-1.4-5.5,0.3-5.6,3.2L322,726c-0.1,2.3,1.1,4.4,3,5.5l68.4,40.3c4.1,2.4,9.4-0.5,9.4-5.3v-14.2
			C402.8,750.1,401.6,748.1,399.6,747z"/>
		
			<linearGradient id="zyndata.vn_00000098911655158054085580000005352504870444379564_" gradientUnits="userSpaceOnUse" x1="321.9874" y1="682.4066" x2="402.7965" y2="682.4066">
			<stop  offset="0" style="stop-color:#608EFF"/>
			<stop  offset="1" style="stop-color:#6762FF"/>
		</linearGradient>
		
			<path id="zyndata.vn_00000014607321036155927070000005708748023909266590_" style="fill:url(#zyndata.vn_00000098911655158054085580000005352504870444379564_);" d="
			M399.6,689.7l-71.5-40c-2.5-1.4-5.5,0.3-5.6,3.2l-0.5,15.9c-0.1,2.3,1.1,4.4,3,5.5l68.4,40.3c4.1,2.4,9.4-0.5,9.4-5.3v-14.2
			C402.8,692.9,401.6,690.8,399.6,689.7z"/>
		
			<linearGradient id="zyndata.vn_00000118382201678867104510000012909592232005153672_" gradientUnits="userSpaceOnUse" x1="323.1909" y1="627.5357" x2="404" y2="627.5357">
			<stop  offset="0" style="stop-color:#608EFF"/>
			<stop  offset="1" style="stop-color:#6762FF"/>
		</linearGradient>
		
			<path id="zyndata.vn_00000030462132896501863140000008654717739179314338_" style="fill:url(#zyndata.vn_00000118382201678867104510000012909592232005153672_);" d="
			M400.8,634.9l-71.5-40c-2.5-1.4-5.5,0.3-5.6,3.2l-0.5,15.9c-0.1,2.3,1.1,4.4,3,5.5l68.4,40.3c4.1,2.4,9.4-0.5,9.4-5.3v-14.2
			C404,638,402.8,636,400.8,634.9z"/>
		
			<linearGradient id="zyndata.vn_00000049921521440605308090000001094103804941115579_" gradientUnits="userSpaceOnUse" x1="323.1909" y1="572.5739" x2="404" y2="572.5739">
			<stop  offset="0" style="stop-color:#608EFF"/>
			<stop  offset="1" style="stop-color:#6762FF"/>
		</linearGradient>
		
			<path id="zyndata.vn_00000062167935746323996230000011494045055311629956_" style="fill:url(#zyndata.vn_00000049921521440605308090000001094103804941115579_);" d="
			M400.8,579.9l-71.5-40c-2.5-1.4-5.5,0.3-5.6,3.2l-0.5,15.9c-0.1,2.3,1.1,4.4,3,5.5l68.4,40.3c4.1,2.4,9.4-0.5,9.4-5.3v-14.2
			C404,583.1,402.8,581,400.8,579.9z"/>
	</g>
</g>
</svg>
