<svg width="1003" height="728" viewBox="0 0 1003 728" fill="none" xmlns="http://www.w3.org/2000/svg">
<g clip-path="url(#clip0_3071_834)">
<path d="M778.946 368.138C725.239 381.528 823.179 398.489 778.946 368.138C730.852 338.719 763.762 226.734 675.533 248.732C587.305 270.73 526.013 343.445 497.385 391.965C471.608 435.643 452.517 473.524 398.807 486.915C345.1 500.306 311.425 479.71 267.192 449.358C219.097 419.94 160.892 409.878 72.6641 431.876C-15.5645 453.873 -49.4339 486.92 -78.0628 535.44C-103.839 579.118 -122.931 616.999 -176.64 630.39C-230.347 643.781 -264.022 623.185 -308.255 592.833C-356.35 563.415 -415.003 524.241 -503.231 546.239C-591.46 568.237 -624.881 630.396 -653.51 678.915C-679.287 722.593 -698.378 760.474 -752.088 773.866C-805.795 787.256 -839.469 766.66 -883.703 736.308C-931.797 706.89 -990.45 667.716 -1078.68 689.714C-1166.91 711.712 -1200.33 773.871 -1228.96 822.39C-1254.73 866.068 -1273.83 903.949 -1327.53 917.341C-1381.24 930.731 -1414.92 910.135 -1459.15 879.783C-1507.24 850.365 -1565.9 811.191 -1654.13 833.189C-1742.35 855.187 -1775.78 917.346 -1804.4 965.865C-1830.18 1009.54 -1849.27 1047.42 -1902.98 1060.82C-1956.69 1074.21 -1990.36 1053.61 -2034.6 1023.26C-2082.69 993.84 -2141.34 954.666 -2229.57 976.664C-2252.59 982.402 -2264.06 1001.81 -2258.23 1025.22C-2252.4 1048.6 -2233.17 1060.38 -2210.13 1054.64C-2156.43 1041.25 -2122.75 1061.84 -2078.52 1092.19C-2030.42 1121.61 -1971.77 1160.79 -1883.54 1138.79C-1795.31 1116.79 -1761.89 1054.63 -1733.26 1006.11C-1707.49 962.433 -1688.39 924.552 -1634.69 911.161C-1580.98 897.77 -1547.3 918.367 -1503.07 948.718C-1454.98 978.136 -1396.32 1017.31 -1308.09 995.312C-1219.87 973.315 -1186.44 911.156 -1157.82 862.636C-1132.04 818.958 -1112.95 781.077 -1059.24 767.686C-1005.53 754.295 -971.856 774.892 -927.623 805.243C-879.528 834.661 -820.875 873.835 -732.647 851.837C-644.419 829.84 -610.997 767.681 -582.368 719.161C-556.591 675.483 -537.5 637.602 -483.791 624.211C-430.084 610.82 -396.409 631.417 -352.175 661.768C-304.081 691.186 -245.428 730.36 -157.199 708.362C-68.971 686.364 -35.5497 624.206 -6.92079 575.686C18.8557 532.008 37.9474 494.127 91.6566 480.736C145.364 467.345 179.039 487.941 223.272 518.293C271.367 547.711 330.02 586.885 418.248 564.887C506.476 542.889 539.898 480.731 568.527 432.211C594.303 388.533 613.395 350.652 667.104 337.261C720.811 323.87 775.693 392.947 756.266 315.03C800.642 342.421 690.718 390.136 778.946 368.138C801.96 362.4 784.782 391.546 778.946 368.138C798.133 363.354 773.11 344.73 778.946 368.138Z" fill="url(#paint0_linear_3071_834)"/>
<path fill-rule="evenodd" clip-rule="evenodd" d="M271.965 442.196L272.15 442.324C294.354 457.559 312.954 469.644 332.389 476.482C351.436 483.183 371.538 484.908 396.74 478.625C443.402 466.99 461.56 436.03 485.415 395.356C486.893 392.837 488.392 390.28 489.921 387.689C519.064 338.299 581.946 263.26 673.466 240.441C697.105 234.547 714.659 237.197 727.533 247.249C739.832 256.851 746.099 271.967 750.571 286.642C752.336 292.434 753.908 298.486 755.43 304.407L760.877 307.769C767.562 311.895 772.262 316.987 774.501 323.14C776.746 329.306 776.097 335.375 774.327 340.634C773.476 343.161 772.312 345.642 770.964 348.033C771.701 349.193 772.468 350.303 773.266 351.361C775.676 348.963 778.822 347.93 781.827 348.045C784.846 348.161 787.377 349.382 789.179 350.723C792.129 352.918 795.178 357.117 794.962 362.34C795.211 362.557 795.454 362.786 795.691 363.027C799.755 367.157 799.761 372.293 798.522 376.133C798.956 377.251 799.272 378.469 799.385 379.775C799.66 382.944 798.67 385.967 796.629 388.341C794.785 390.486 792.48 391.654 790.651 392.315C788.765 392.995 786.807 393.345 785.007 393.518C781.412 393.863 777.473 393.591 773.852 392.964C770.236 392.338 766.447 391.272 763.216 389.733C761.601 388.964 759.881 387.961 758.357 386.649C757.11 385.576 755.662 384.009 754.718 381.879C752.062 382.211 749.642 382.377 747.516 382.298C745.422 382.22 742.355 381.881 739.657 380.136C738.14 379.155 736.718 377.711 735.81 375.74C734.919 373.805 734.772 371.899 734.917 370.346C735.179 367.551 736.455 365.216 737.313 363.817C738.127 362.493 739.171 361.081 740.305 359.661C738.971 359.293 737.652 358.886 736.364 358.467C732.842 357.322 728.941 355.866 724.989 354.392C723.654 353.894 722.313 353.394 720.979 352.902C715.55 350.903 709.91 348.927 704.082 347.34C692.374 344.151 680.539 342.717 669.171 345.552C622.508 357.186 604.349 388.147 580.495 428.821C579.017 431.34 577.518 433.897 575.989 436.488C574.809 438.487 573.618 440.516 572.412 442.571C544.52 490.086 508.678 551.147 420.315 573.178C331.963 595.207 271.689 558.15 224.726 529.277C222.69 528.025 220.678 526.788 218.69 525.572L218.498 525.455L218.313 525.328C196.109 510.092 177.509 498.007 158.075 491.169C139.028 484.468 118.925 482.743 93.7232 489.027C47.0611 500.661 28.9029 531.622 5.04799 572.295C3.57046 574.815 2.0711 577.371 0.541842 579.963C-0.637982 581.962 -1.82937 583.992 -3.03548 586.046C-30.9275 633.562 -66.7697 694.622 -155.133 716.653C-243.485 738.682 -303.759 701.625 -350.721 672.752C-352.758 671.5 -354.769 670.263 -356.757 669.048L-356.949 668.93L-357.134 668.803C-379.339 653.567 -397.938 641.482 -417.373 634.644C-436.42 627.943 -456.522 626.218 -481.724 632.502C-528.386 644.136 -546.544 675.097 -570.399 715.77C-571.877 718.29 -573.376 720.846 -574.905 723.438C-576.085 725.437 -577.276 727.466 -578.482 729.521C-606.374 777.036 -642.217 838.097 -730.58 860.128C-818.932 882.157 -879.206 845.1 -926.169 816.227C-928.205 814.975 -930.217 813.738 -932.204 812.523L-932.396 812.405L-932.582 812.278C-954.786 797.042 -973.386 784.957 -992.82 778.119C-1011.87 771.418 -1031.97 769.693 -1057.17 775.977C-1103.83 787.611 -1121.99 818.572 -1145.85 859.245C-1147.32 861.765 -1148.82 864.321 -1150.35 866.913C-1151.53 868.912 -1152.72 870.941 -1153.93 872.996C-1181.82 920.512 -1217.66 981.572 -1306.03 1003.6C-1394.38 1025.63 -1454.65 988.575 -1501.62 959.702C-1503.65 958.45 -1505.66 957.213 -1507.65 955.998L-1507.84 955.88L-1508.03 955.753C-1530.23 940.517 -1548.83 928.432 -1568.27 921.595C-1587.31 914.893 -1607.42 913.168 -1632.62 919.452C-1679.28 931.086 -1697.44 962.047 -1721.29 1002.72C-1722.77 1005.24 -1724.27 1007.8 -1725.8 1010.39C-1726.98 1012.39 -1728.17 1014.42 -1729.38 1016.47C-1757.27 1063.99 -1793.11 1125.05 -1881.47 1147.08C-1969.83 1169.11 -2030.1 1132.05 -2077.06 1103.18C-2079.1 1101.93 -2081.11 1100.69 -2083.1 1099.47L-2083.29 1099.36L-2083.48 1099.23C-2105.68 1083.99 -2124.28 1071.91 -2143.71 1065.07C-2162.76 1058.37 -2182.86 1056.64 -2208.07 1062.93C-2221.57 1066.29 -2234.58 1064.64 -2245.22 1058.13C-2255.82 1051.64 -2263.26 1040.81 -2266.62 1027.31C-2269.99 1013.79 -2268.5 1000.75 -2262.18 990.036C-2255.84 979.301 -2245.13 971.736 -2231.64 968.373C-2143.29 946.345 -2083.01 983.402 -2036.05 1012.27C-2034.02 1013.53 -2032 1014.76 -2030.02 1015.98L-2029.82 1016.1L-2029.64 1016.22C-2007.43 1031.46 -1988.83 1043.54 -1969.4 1050.38C-1950.35 1057.08 -1930.25 1058.81 -1905.05 1052.52C-1858.39 1040.89 -1840.23 1009.93 -1816.37 969.256C-1814.9 966.737 -1813.4 964.18 -1811.87 961.589C-1810.69 959.589 -1809.5 957.56 -1808.29 955.506C-1780.4 907.99 -1744.56 846.93 -1656.19 824.898C-1567.84 802.87 -1507.57 839.927 -1460.6 868.799C-1458.57 870.051 -1456.56 871.288 -1454.57 872.504L-1454.38 872.621L-1454.19 872.749C-1431.99 887.984 -1413.39 900.07 -1393.95 906.907C-1374.91 913.608 -1354.8 915.333 -1329.6 909.05C-1282.94 897.416 -1264.78 866.455 -1240.93 825.781C-1239.45 823.262 -1237.95 820.705 -1236.42 818.113C-1235.24 816.114 -1234.05 814.085 -1232.84 812.031C-1204.95 764.515 -1169.11 703.455 -1080.75 681.423C-992.394 659.395 -932.12 696.452 -885.158 725.324C-883.121 726.576 -881.109 727.813 -879.122 729.029L-878.93 729.146L-878.744 729.274C-856.54 744.509 -837.94 756.594 -818.506 763.432C-799.459 770.133 -779.356 771.858 -754.155 765.575C-707.492 753.94 -689.334 722.979 -665.479 682.305C-664.001 679.786 -662.502 677.23 -660.973 674.639C-659.793 672.639 -658.602 670.61 -657.396 668.555C-629.504 621.04 -593.662 559.98 -505.299 537.948C-416.946 515.92 -356.672 552.977 -309.71 581.849C-307.674 583.101 -305.662 584.338 -303.675 585.554L-303.482 585.671L-303.297 585.799C-281.093 601.034 -262.493 613.119 -243.059 619.957C-224.011 626.658 -203.909 628.383 -178.707 622.1C-132.045 610.465 -113.887 579.505 -90.032 538.831C-88.5545 536.312 -87.0551 533.755 -85.5261 531.164C-70.8686 506.323 -54.5378 484.885 -30.2047 466.877C-5.93102 448.913 25.7588 434.764 70.5965 423.585C160.547 401.158 221.266 411.185 271.773 442.079L271.965 442.196ZM-1804.4 965.865C-1806.03 968.617 -1807.63 971.345 -1809.21 974.046C-1832.72 1014.22 -1852.66 1048.27 -1902.98 1060.82C-1956.69 1074.21 -1990.36 1053.61 -2034.6 1023.26C-2036.5 1022.09 -2038.42 1020.92 -2040.36 1019.73C-2087.38 990.836 -2144.84 955.537 -2229.57 976.664C-2252.59 982.402 -2264.06 1001.81 -2258.23 1025.22C-2252.4 1048.6 -2233.17 1060.38 -2210.13 1054.64C-2156.43 1041.25 -2122.75 1061.84 -2078.52 1092.19C-2076.61 1093.36 -2074.69 1094.54 -2072.76 1095.73C-2025.73 1124.62 -1968.28 1159.91 -1883.54 1138.79C-1798.79 1117.66 -1764.61 1059.47 -1736.68 1011.91C-1735.53 1009.96 -1734.39 1008.03 -1733.26 1006.11C-1731.64 1003.36 -1730.04 1000.63 -1728.46 997.931C-1704.94 957.758 -1685.01 923.709 -1634.69 911.161C-1580.98 897.77 -1547.3 918.367 -1503.07 948.718C-1501.17 949.882 -1499.25 951.061 -1497.31 952.252C-1450.29 981.141 -1392.83 1016.44 -1308.09 995.312C-1223.35 974.182 -1189.17 915.997 -1161.23 868.439C-1160.08 866.486 -1158.94 864.55 -1157.82 862.636C-1156.19 859.885 -1154.59 857.156 -1153.01 854.456C-1129.5 814.283 -1109.56 780.234 -1059.24 767.686C-1005.53 754.295 -971.856 774.892 -927.623 805.243C-925.72 806.407 -923.8 807.586 -921.863 808.777C-874.841 837.666 -817.384 872.965 -732.647 851.837C-647.899 830.707 -613.719 772.522 -585.781 724.963C-584.634 723.01 -583.497 721.075 -582.368 719.161C-580.744 716.41 -579.147 713.681 -577.566 710.98C-554.049 670.808 -534.116 636.758 -483.791 624.211C-430.084 610.82 -396.409 631.417 -352.175 661.768C-350.272 662.932 -348.353 664.111 -346.416 665.301C-299.393 694.19 -241.937 729.49 -157.199 708.362C-72.4513 687.232 -38.272 629.047 -10.3342 581.488C-9.18697 579.535 -8.05006 577.6 -6.92079 575.686C-5.29681 572.935 -3.69952 570.206 -2.11842 567.505C21.3985 527.332 41.3309 493.283 91.6566 480.736C145.364 467.345 179.039 487.941 223.272 518.293C225.175 519.457 227.094 520.636 229.031 521.826C276.054 550.715 333.511 586.014 418.248 564.887C502.996 543.757 537.175 485.573 565.112 438.014C566.26 436.061 567.397 434.125 568.527 432.211C570.15 429.46 571.747 426.732 573.328 424.031C596.845 383.858 616.778 349.808 667.104 337.261C688.989 331.804 711.07 340.041 728.238 346.446C735.279 349.073 741.495 351.392 746.531 352.331C749.225 352.833 751.581 352.94 753.546 352.489C756.639 351.779 758.763 349.686 759.708 345.569C760.098 346.365 760.499 347.151 760.911 347.926C759.141 350.516 757.163 353.022 755.192 355.388C753.867 356.978 752.546 358.505 751.294 359.951C750.892 360.415 750.498 360.871 750.113 361.317C742.581 370.059 738.608 375.437 754.451 373.296C757.93 372.826 762.364 371.994 767.926 370.755C768.768 370.567 769.637 370.37 770.532 370.164C773.111 369.568 775.912 368.894 778.946 368.138C775.891 366.269 773.161 364.066 770.708 361.586C770.644 361.522 770.581 361.458 770.517 361.393C770.158 361.025 769.805 360.652 769.457 360.273C768.167 358.866 766.957 357.378 765.818 355.82C765.531 355.427 765.249 355.031 764.971 354.629C763.502 352.509 762.155 350.268 760.911 347.926C763.004 344.861 764.805 341.678 765.953 338.467C768.649 330.933 767.754 323.251 758.624 316.608C757.892 316.075 757.107 315.549 756.266 315.03C760.06 330.245 761.02 339.855 759.708 345.569C758.587 343.28 757.551 340.908 756.585 338.469C753.861 331.591 751.686 324.189 749.677 316.673C748.88 313.69 748.109 310.689 747.34 307.696C746.489 304.383 745.64 301.08 744.761 297.822C735.898 264.964 723.973 236.655 675.533 248.732C587.305 270.73 526.013 343.445 497.385 391.965C495.761 394.716 494.163 397.445 492.582 400.145C469.066 440.318 449.133 474.368 398.807 486.915C345.1 500.306 311.425 479.71 267.192 449.358C219.097 419.94 160.892 409.878 72.6641 431.876C-15.5645 453.873 -49.4339 486.92 -78.0628 535.44C-79.6865 538.191 -81.2843 540.92 -82.8654 543.621C-106.382 583.794 -126.314 617.843 -176.64 630.39C-230.347 643.781 -264.022 623.185 -308.255 592.833C-310.158 591.669 -312.078 590.49 -314.015 589.3C-361.038 560.411 -418.494 525.112 -503.231 546.239C-587.979 567.369 -622.159 625.554 -650.097 673.113C-651.244 675.066 -652.381 677.001 -653.51 678.915C-655.134 681.666 -656.731 684.395 -658.312 687.096C-681.829 727.268 -701.762 761.318 -752.088 773.866C-805.795 787.256 -839.469 766.66 -883.703 736.308C-885.606 735.144 -887.526 733.965 -889.463 732.775C-936.485 703.886 -993.941 668.587 -1078.68 689.714C-1163.43 710.844 -1197.61 769.029 -1225.54 816.588C-1226.69 818.541 -1227.83 820.476 -1228.96 822.39C-1230.58 825.142 -1232.18 827.87 -1233.76 830.571C-1257.28 870.744 -1277.21 904.793 -1327.53 917.341C-1381.24 930.731 -1414.92 910.135 -1459.15 879.783C-1461.05 878.619 -1462.97 877.44 -1464.91 876.25C-1511.93 847.361 -1569.39 812.062 -1654.13 833.189C-1738.87 854.319 -1773.05 912.504 -1800.99 960.063C-1802.14 962.016 -1803.28 963.951 -1804.4 965.865Z" fill="url(#paint1_linear_3071_834)"/>
</g>
<path fill-rule="evenodd" clip-rule="evenodd" d="M273.37 325.942L214.81 335.069C176.442 341.048 146.741 357.756 122.15 386.773C97.3774 416.005 85.446 448.411 85.446 487.612C85.446 532.088 100.01 567.04 130.485 597.515C160.96 627.99 195.912 642.554 240.388 642.554H810.028C839.152 642.554 862.786 633.013 885.183 610.617C907.58 588.22 917.121 564.585 917.121 535.462C917.121 500.764 906.378 476.892 886.11 457.232C865.288 437.035 841.523 427.433 808.983 428.336L721.164 430.776V315.581C721.164 250.411 699.995 197.277 656.776 151.532C614.414 106.694 565.096 85.446 503.562 85.446C449.661 85.446 404.085 101.933 363.359 135.78C322.527 169.714 296.739 212.603 285.338 267.896L273.37 325.942ZM804.849 279.519C797.737 208.204 769.083 145.981 718.886 92.8513C660.403 30.9504 588.628 0 503.562 0C429.888 0 364.949 23.3552 308.745 70.0657C252.54 116.776 216.843 176.968 201.653 250.642C143.17 259.756 94.94 286.719 56.964 331.531C18.988 376.342 0 428.369 0 487.612C0 554.45 23.3553 611.224 70.0658 657.934C116.776 704.645 173.55 728 240.388 728H810.028C862.435 728 907.627 709.012 945.603 671.036C983.579 633.06 1002.57 587.869 1002.57 535.462C1002.57 479.257 983.579 432.737 945.603 395.9C910.635 361.981 868.583 344.322 819.448 342.923C815.221 342.803 810.942 342.803 806.61 342.923V315.581C806.61 303.312 806.023 291.292 804.849 279.519Z" fill="white"/>
<path fill-rule="evenodd" clip-rule="evenodd" d="M273.37 325.942L214.81 335.069C176.442 341.048 146.741 357.756 122.15 386.773C97.3774 416.005 85.446 448.411 85.446 487.612C85.446 532.088 100.01 567.04 130.485 597.515C160.96 627.99 195.912 642.554 240.388 642.554H810.028C839.152 642.554 862.786 633.013 885.183 610.617C907.58 588.22 917.121 564.585 917.121 535.462C917.121 500.764 906.378 476.892 886.11 457.232C865.288 437.035 841.523 427.433 808.983 428.336L721.164 430.776V315.581C721.164 250.411 699.995 197.277 656.776 151.532C614.414 106.694 565.096 85.446 503.562 85.446C449.661 85.446 404.085 101.933 363.359 135.78C322.527 169.714 296.739 212.603 285.338 267.896L273.37 325.942ZM804.849 279.519C797.737 208.204 769.083 145.981 718.886 92.8513C660.403 30.9504 588.628 0 503.562 0C429.888 0 364.949 23.3552 308.745 70.0657C252.54 116.776 216.843 176.968 201.653 250.642C143.17 259.756 94.94 286.719 56.964 331.531C18.988 376.342 0 428.369 0 487.612C0 554.45 23.3553 611.224 70.0658 657.934C116.776 704.645 173.55 728 240.388 728H810.028C862.435 728 907.627 709.012 945.603 671.036C983.579 633.06 1002.57 587.869 1002.57 535.462C1002.57 479.257 983.579 432.737 945.603 395.9C910.635 361.981 868.583 344.322 819.448 342.923C815.221 342.803 810.942 342.803 806.61 342.923V315.581C806.61 303.312 806.023 291.292 804.849 279.519Z" fill="url(#paint2_linear_3071_834)"/>
<defs>
<linearGradient id="paint0_linear_3071_834" x1="65.2412" y1="460.044" x2="753.175" y2="269.429" gradientUnits="userSpaceOnUse">
<stop stop-color="#E1C06B"/>
<stop offset="1" stop-color="#EAC971"/>
</linearGradient>
<linearGradient id="paint1_linear_3071_834" x1="65.2412" y1="460.044" x2="753.175" y2="269.429" gradientUnits="userSpaceOnUse">
<stop stop-color="#E1C06B"/>
<stop offset="1" stop-color="#EAC971"/>
</linearGradient>
<linearGradient id="paint2_linear_3071_834" x1="501.283" y1="0" x2="501.283" y2="728" gradientUnits="userSpaceOnUse">
<stop stop-color="#FAD77B"/>
<stop offset="1" stop-color="#D2B361"/>
</linearGradient>
<clipPath id="clip0_3071_834">
<rect width="724.121" height="344.99" fill="white" transform="translate(43.9037 365.988) rotate(-14)"/>
</clipPath>
</defs>
</svg>
